# xmcd
#
# Track frame offsets: 
#        150
#        21613
#        41639
#        69615
#        90873
#        117591
#        141234
#        163154
#        181487
#        207020
#        228320
#        247585
#
# Disc length: 3653 seconds
#
# Revision: 0
# Processed by: cddbd v1.5.2PL0 Copyright (c) Steve Scherf et al.
# Submitted via: ExactAudioCopy v1.0b3
#
DISCID=a20e430c
DTITLE=Various Artist - Top 25 Praise Songs 2015 Edition (2015)
DYEAR=2015
DGENRE=Praise and Worship
TTITLE0=Day One Worship - White Flag
TTITLE1=Day One Worship - Jesus, Son of God
TTITLE2=Chilhowee Hills Worship - Waiting Here for You
TTITLE3=World Outreach Church - This Is Amazing Grace
TTITLE4=Chilhowee Hills Worship - Victory In Jesus
TTITLE5=World Outreach Church - Crown Him (Majesty)
TTITLE6=World Outreach Church - Nothing Is Impossible
TTITLE7=World Outreach Church - All My Fountains
TTITLE8=Chilhowee Hills Worship - O The Blood
TTITLE9=Chilhowee Hills Worship - More Than Amazing
TTITLE10=Chilhowee Hills Worship - Scandal Of Peace
TTITLE11=World Outreach Church - Victor's Crown
EXTD=Barcode: 738597223921
EXTT0=
EXTT1=
EXTT2=
EXTT3=
EXTT4=
EXTT5=
EXTT6=
EXTT7=
EXTT8=
EXTT9=
EXTT10=
EXTT11=
PLAYORDER=
